<mxfile host="Electron" modified="2024-03-22T14:27:09.379Z" agent="Mozilla/5.0 (Macintosh; Intel Mac OS X 10_15_7) AppleWebKit/537.36 (KHTML, like Gecko) draw.io/24.0.4 Chrome/120.0.6099.109 Electron/28.1.0 Safari/537.36" etag="nPMhTJmkiSuqPZtAGJwo" version="24.0.4" type="device">
  <diagram name="Page-1" id="3I8ypb9ZHTeRbu0gNpge">
    <mxGraphModel dx="954" dy="727" grid="1" gridSize="10" guides="1" tooltips="1" connect="1" arrows="1" fold="1" page="1" pageScale="1" pageWidth="827" pageHeight="1169" math="0" shadow="0">
      <root>
        <mxCell id="0" />
        <mxCell id="1" parent="0" />
        <mxCell id="Elkq9HynKMPFsfBZglm--1" value="" style="rounded=0;whiteSpace=wrap;html=1;fillColor=#d5e8d4;strokeColor=#82b366;" vertex="1" parent="1">
          <mxGeometry x="80" y="240" width="140" height="40" as="geometry" />
        </mxCell>
        <mxCell id="Elkq9HynKMPFsfBZglm--2" value="" style="rounded=0;whiteSpace=wrap;html=1;fillColor=#f8cecc;strokeColor=#b85450;" vertex="1" parent="1">
          <mxGeometry x="440" y="360" width="110" height="40" as="geometry" />
        </mxCell>
        <mxCell id="Elkq9HynKMPFsfBZglm--3" value="" style="rounded=0;whiteSpace=wrap;html=1;fillColor=#fff2cc;strokeColor=#d6b656;" vertex="1" parent="1">
          <mxGeometry x="220" y="300" width="220" height="40" as="geometry" />
        </mxCell>
        <mxCell id="Elkq9HynKMPFsfBZglm--4" value="" style="rounded=0;whiteSpace=wrap;html=1;fillColor=#d5e8d4;strokeColor=#82b366;" vertex="1" parent="1">
          <mxGeometry x="550" y="240" width="270" height="40" as="geometry" />
        </mxCell>
        <mxCell id="Elkq9HynKMPFsfBZglm--5" value="" style="endArrow=none;dashed=1;html=1;rounded=0;" edge="1" parent="1">
          <mxGeometry width="50" height="50" relative="1" as="geometry">
            <mxPoint x="80" y="420" as="sourcePoint" />
            <mxPoint x="820" y="420" as="targetPoint" />
          </mxGeometry>
        </mxCell>
        <mxCell id="Elkq9HynKMPFsfBZglm--6" value="" style="rounded=0;whiteSpace=wrap;html=1;fillColor=#d5e8d4;strokeColor=#82b366;" vertex="1" parent="1">
          <mxGeometry x="80" y="440" width="360" height="40" as="geometry" />
        </mxCell>
        <mxCell id="Elkq9HynKMPFsfBZglm--7" value="" style="rounded=0;whiteSpace=wrap;html=1;fillColor=#fff2cc;strokeColor=#d6b656;" vertex="1" parent="1">
          <mxGeometry x="220" y="500" width="220" height="40" as="geometry" />
        </mxCell>
        <mxCell id="Elkq9HynKMPFsfBZglm--8" value="" style="rounded=0;whiteSpace=wrap;html=1;fillColor=#f8cecc;strokeColor=#b85450;" vertex="1" parent="1">
          <mxGeometry x="440" y="545" width="110" height="40" as="geometry" />
        </mxCell>
        <mxCell id="Elkq9HynKMPFsfBZglm--9" value="" style="rounded=0;whiteSpace=wrap;html=1;fillColor=#d5e8d4;strokeColor=#82b366;" vertex="1" parent="1">
          <mxGeometry x="550" y="440" width="90" height="40" as="geometry" />
        </mxCell>
      </root>
    </mxGraphModel>
  </diagram>
</mxfile>
